<svg xmlns="http://www.w3.org/2000/svg" xmlns:xlink="http://www.w3.org/1999/xlink" width="500" zoomAndPan="magnify" viewBox="0 0 375 374.999991" height="500" preserveAspectRatio="xMidYMid meet" version="1.0"><defs><g><g id="id1"/></g></defs><rect x="-37.5" width="450" fill="rgb(100%, 100%, 100%)" y="-37.499999" height="449.999989" fill-opacity="1"/><rect x="-37.5" width="450" fill="rgb(14.509583%, 21.179199%, 24.708557%)" y="-37.499999" height="449.999989" fill-opacity="1"/><rect x="-37.5" width="450" fill="rgb(100%, 100%, 100%)" y="-37.499999" height="449.999989" fill-opacity="1"/><rect x="-37.5" width="450" fill="rgb(14.509583%, 21.179199%, 24.708557%)" y="-37.499999" height="449.999989" fill-opacity="1"/><g fill="rgb(12.548828%, 69.40918%, 66.268921%)" fill-opacity="1"><g transform="translate(7.605591, 283.499981)"><g><path d="M 136.96875 -200.984375 C 140.382812 -200.984375 142.773438 -199.929688 144.140625 -197.828125 C 145.503906 -195.722656 146.1875 -191.644531 146.1875 -185.59375 C 146.1875 -181.101562 145.894531 -177.734375 145.3125 -175.484375 C 144.726562 -173.242188 143.773438 -171.734375 142.453125 -170.953125 C 141.140625 -170.171875 139.3125 -169.78125 136.96875 -169.78125 C 127.394531 -169.78125 119.992188 -168.726562 114.765625 -166.625 C 109.546875 -164.53125 105.984375 -161.257812 104.078125 -156.8125 C 102.171875 -152.363281 101.414062 -146.332031 101.8125 -138.71875 L 102.546875 -124.515625 L 102.6875 -120.703125 C 102.6875 -110.453125 100.046875 -101.976562 94.765625 -95.28125 C 89.492188 -88.59375 80.851562 -83.539062 68.84375 -80.125 L 68.84375 -78.65625 C 80.851562 -75.34375 89.566406 -70.316406 94.984375 -63.578125 C 100.410156 -56.835938 103.125 -48.488281 103.125 -38.53125 C 103.125 -36.570312 103.078125 -35.101562 102.984375 -34.125 L 101.65625 -14.9375 C 101.5625 -13.769531 101.515625 -12.015625 101.515625 -9.671875 C 101.515625 -3.128906 102.632812 2.09375 104.875 6 C 107.125 9.90625 110.835938 12.8125 116.015625 14.71875 C 121.191406 16.625 128.175781 17.578125 136.96875 17.578125 C 139.3125 17.578125 141.140625 17.941406 142.453125 18.671875 C 143.773438 19.410156 144.726562 20.898438 145.3125 23.140625 C 145.894531 25.390625 146.1875 28.757812 146.1875 33.25 C 146.1875 39.300781 145.503906 43.398438 144.140625 45.546875 C 142.773438 47.703125 140.382812 48.78125 136.96875 48.78125 C 112.457031 48.78125 94.289062 44.457031 82.46875 35.8125 C 70.65625 27.175781 64.75 13.773438 64.75 -4.390625 C 64.75 -7.222656 64.894531 -10.15625 65.1875 -13.1875 L 67.09375 -34.125 C 67.1875 -34.90625 67.234375 -36.078125 67.234375 -37.640625 C 67.234375 -45.941406 64.328125 -52.363281 58.515625 -56.90625 C 52.710938 -61.445312 44.34375 -63.71875 33.40625 -63.71875 C 31.0625 -63.71875 29.253906 -64.132812 27.984375 -64.96875 C 26.710938 -65.800781 25.757812 -67.335938 25.125 -69.578125 C 24.488281 -71.828125 24.171875 -75.097656 24.171875 -79.390625 C 24.171875 -83.691406 24.488281 -86.941406 25.125 -89.140625 C 25.757812 -91.335938 26.710938 -92.847656 27.984375 -93.671875 C 29.253906 -94.503906 31.0625 -94.921875 33.40625 -94.921875 C 44.34375 -94.921875 52.617188 -97.164062 58.234375 -101.65625 C 63.847656 -106.15625 66.65625 -112.550781 66.65625 -120.84375 C 66.65625 -122.40625 66.601562 -123.628906 66.5 -124.515625 L 65.046875 -140.484375 C 64.742188 -143.410156 64.59375 -146.238281 64.59375 -148.96875 C 64.59375 -166.644531 70.5 -179.734375 82.3125 -188.234375 C 94.132812 -196.734375 112.351562 -200.984375 136.96875 -200.984375 Z M 136.96875 -200.984375 "/></g></g><g transform="translate(187.488393, 283.499981)"><g><path d="M 42.921875 -200.984375 C 67.523438 -200.984375 85.734375 -196.734375 97.546875 -188.234375 C 109.367188 -179.734375 115.28125 -166.644531 115.28125 -148.96875 C 115.28125 -146.238281 115.132812 -143.410156 114.84375 -140.484375 L 113.375 -124.515625 C 113.28125 -123.628906 113.234375 -122.40625 113.234375 -120.84375 C 113.234375 -112.550781 116.039062 -106.15625 121.65625 -101.65625 C 127.269531 -97.164062 135.546875 -94.921875 146.484375 -94.921875 C 148.828125 -94.921875 150.632812 -94.503906 151.90625 -93.671875 C 153.175781 -92.847656 154.128906 -91.335938 154.765625 -89.140625 C 155.398438 -86.941406 155.71875 -83.691406 155.71875 -79.390625 C 155.71875 -75.097656 155.398438 -71.828125 154.765625 -69.578125 C 154.128906 -67.335938 153.175781 -65.800781 151.90625 -64.96875 C 150.632812 -64.132812 148.828125 -63.71875 146.484375 -63.71875 C 135.546875 -63.71875 127.171875 -61.445312 121.359375 -56.90625 C 115.546875 -52.363281 112.640625 -45.941406 112.640625 -37.640625 C 112.640625 -36.078125 112.691406 -34.90625 112.796875 -34.125 L 114.703125 -13.1875 C 114.992188 -10.15625 115.140625 -7.222656 115.140625 -4.390625 C 115.140625 13.773438 109.226562 27.175781 97.40625 35.8125 C 85.59375 44.457031 67.429688 48.78125 42.921875 48.78125 C 39.503906 48.78125 37.109375 47.703125 35.734375 45.546875 C 34.367188 43.398438 33.6875 39.300781 33.6875 33.25 C 33.6875 28.757812 33.976562 25.390625 34.5625 23.140625 C 35.15625 20.898438 36.109375 19.410156 37.421875 18.671875 C 38.742188 17.941406 40.578125 17.578125 42.921875 17.578125 C 51.710938 17.578125 58.691406 16.625 63.859375 14.71875 C 69.035156 12.8125 72.75 9.90625 75 6 C 77.25 2.09375 78.375 -3.128906 78.375 -9.671875 C 78.375 -12.015625 78.320312 -13.769531 78.21875 -14.9375 L 76.90625 -34.125 C 76.8125 -35.101562 76.765625 -36.570312 76.765625 -38.53125 C 76.765625 -48.488281 79.472656 -56.835938 84.890625 -63.578125 C 90.304688 -70.316406 99.019531 -75.34375 111.03125 -78.65625 L 111.03125 -80.125 C 98.238281 -83.738281 89.28125 -89.207031 84.15625 -96.53125 C 79.03125 -103.851562 76.757812 -113.179688 77.34375 -124.515625 L 78.078125 -138.71875 C 78.171875 -139.695312 78.21875 -141.066406 78.21875 -142.828125 C 78.21875 -149.367188 77.117188 -154.566406 74.921875 -158.421875 C 72.722656 -162.273438 69.082031 -165.128906 64 -166.984375 C 58.925781 -168.847656 51.898438 -169.78125 42.921875 -169.78125 C 40.578125 -169.78125 38.742188 -170.171875 37.421875 -170.953125 C 36.109375 -171.734375 35.15625 -173.242188 34.5625 -175.484375 C 33.976562 -177.734375 33.6875 -181.101562 33.6875 -185.59375 C 33.6875 -191.644531 34.367188 -195.722656 35.734375 -197.828125 C 37.109375 -199.929688 39.503906 -200.984375 42.921875 -200.984375 Z M 42.921875 -200.984375 "/></g></g></g><path fill="rgb(72.158813%, 47.059631%, 52.938843%)" d="M 0.046875 37.5 L 374.953125 37.5 L 374.953125 57 L 0.046875 57 L 0.046875 37.5 " fill-opacity="1" fill-rule="nonzero"/></svg>